<svg xmlns="http://www.w3.org/2000/svg">
    <symbol id="money-safe" viewBox="0 0 64 64">
        <g id="shield-laptop-protect-money-security">
            <path d="m32 30a2 2 0 0 1 -2-2h-2a4 4 0 0 0 3 3.858v2.142h2v-2.142a3.992 3.992 0 0 0 -1-7.858 2 2 0 1 1 2-2h2a4 4 0 0 0 -3-3.858v-2.142h-2v2.142a3.992 3.992 0 0 0 1 7.858 2 2 0 0 1 0 4z"/>
            <path d="m19 38h2v2h-2z"/>
            <path d="m23 38h2v2h-2z"/>
            <path d="m39 38h2v2h-2z"/>
            <path d="m43 38h2v2h-2z"/>
            <path d="m4 56h2v2h-2z"/>
            <path d="m2 58h2v2h-2z"/>
            <path d="m4 60h2v2h-2z"/>
            <path d="m6 58h2v2h-2z"/>
            <path d="m58 56h2v2h-2z"/>
            <path d="m56 58h2v2h-2z"/>
            <path d="m58 60h2v2h-2z"/>
            <path d="m60 58h2v2h-2z"/>
            <path d="m57.3 10.05-25-8a.883.883 0 0 0 -.6 0l-25 8a1 1 0 0 0 -.7.95v17.82a24.937 24.937 0 0 0 8.92 19.14l16.44 13.81a1.005 1.005 0 0 0 1.28 0l16.44-13.81a24.937 24.937 0 0 0 8.92-19.14v-17.82a1 1 0 0 0 -.7-.95zm-1.3 18.77a22.935 22.935 0 0 1 -8.21 17.61l-15.79 13.26-15.79-13.26a22.935 22.935 0 0 1 -8.21-17.61v-17.09l24-7.68 24 7.68z"/>
            <path d="m48 35h-1v-18a5 5 0 0 0 -5-5h-20a5 5 0 0 0 -5 5v18h-1a1 1 0 0 0 -1 1v4a3.009 3.009 0 0 0 3 3h28a3.009 3.009 0 0 0 3-3v-4a1 1 0 0 0 -1-1zm-29-18a3.009 3.009 0 0 1 3-3h20a3.009 3.009 0 0 1 3 3v18h-9a1 1 0 0 0 -1 1 1 1 0 0 1 -1 1h-4a1 1 0 0 1 -1-1 1 1 0 0 0 -1-1h-9zm28 23a1 1 0 0 1 -1 1h-28a1 1 0 0 1 -1-1v-3h10.17a3.014 3.014 0 0 0 2.83 2h4a3.014 3.014 0 0 0 2.83-2h10.17z"/>
        </g>
    </symbol>
    <symbol id="Transparency" viewBox="0 0 512 512.00049">
        <path d="m90.742188 180.734375c-5.519532 0-10 4.476563-10 9.996094s4.480468 10 10 10c5.519531 0 10-4.480469 10-10s-4.480469-9.996094-10-9.996094zm0 0"/>
        <path d="m370.921875 300.21875c-1.871094-1.875-4.417969-2.929688-7.070313-2.929688-.101562.019532-3.945312-.195312-7.070312 2.929688l-7.066406 7.066406-22.976563-22.972656c50.703125-71.074219 42.992188-169.117188-19.449219-231.554688-70.335937-70.335937-184.1875-70.347656-254.53125 0-70.335937 70.332032-70.347656 184.1875 0 254.53125 62.285157 62.289063 160.289063 70.28125 231.550782 19.449219l22.976562 22.976563-7.066406 7.066406c-3.902344 3.902344-3.90625 10.238281 0 14.144531l126.421875 126.410157c19.535156 19.546874 51.15625 19.558593 70.695313.003906 19.546874-19.53125 19.554687-51.15625 0-70.695313zm-49.496094 35.355469-21.410156-21.410157c2.488281-2.230468 4.921875-4.519531 7.273437-6.875 2.355469-2.351562 4.644532-4.785156 6.875-7.269531l21.410157 21.410157zm-254.527343-42.425781c-62.523438-62.519532-62.53125-163.722657 0-226.25 62.519531-62.523438 163.722656-62.53125 226.25 0 62.382812 62.378906 62.699218 163.558593 0 226.25-63.40625 63.414062-164.582032 61.671874-226.25 0zm296.953124 28.28125 28.277344 28.28125-42.417968 42.417968-28.28125-28.277344zm119.34375 161.769531c-11.71875 11.730469-30.683593 11.734375-42.410156 0l-76.933594-76.929688 42.417969-42.417969 76.929688 76.9375c11.726562 11.714844 11.738281 30.679688-.003907 42.410157zm0 0"/>
        <path d="m279.011719 81.042969c-54.683594-54.683594-143.273438-54.714844-197.980469-.007813-54.570312 54.582032-54.570312 143.394532 0 197.980469 54.714844 54.710937 143.253906 54.714844 197.972656 0 54.582032-54.585937 54.585938-143.394531.007813-197.972656zm-14.148438 183.828125c-46.894531 46.894531-122.785156 46.90625-169.691406.003906-46.773437-46.789062-46.773437-122.914062 0-169.703125 46.871094-46.867187 122.8125-46.878906 169.699219.011719 46.78125 46.78125 46.777344 122.902344-.007813 169.6875zm0 0"/>
        <path d="m180.023438 80.042969c-26.726563 0-51.835938 10.398437-70.703126 29.277343-10.9375 10.9375-18.988281 23.859376-23.925781 38.414063-1.773437 5.226563 1.023438 10.90625 6.253907 12.679687 5.238281 1.777344 10.910156-1.035156 12.683593-6.253906 3.941407-11.621094 10.378907-21.949218 19.128907-30.703125 15.09375-15.097656 35.179687-23.414062 56.5625-23.414062 5.523437 0 10-4.476563 10-10 0-5.523438-4.476563-10-10-10zm0 0"/>
    </symbol>
    <symbol id="Commitment" viewBox="0 0 512 512">
        <g>
            <path d="M444.519,17.067h-25.6V8.533c0-4.713-3.82-8.533-8.533-8.533s-8.533,3.82-8.533,8.533v8.533h-102.4V8.533
				c0-4.713-3.82-8.533-8.533-8.533s-8.533,3.82-8.533,8.533v8.533h-102.4V8.533c0-4.713-3.82-8.533-8.533-8.533
				s-8.533,3.82-8.533,8.533v8.533h-25.6c-14.132,0.015-25.585,11.468-25.6,25.6V204.8c0,4.713,3.82,8.533,8.533,8.533
				s8.533-3.821,8.533-8.533V42.667c0.006-4.71,3.823-8.527,8.533-8.533h25.6v18.639c-11.755,4.156-18.806,16.176-16.698,28.465
				c2.108,12.289,12.763,21.271,25.231,21.271s23.123-8.982,25.231-21.271s-4.943-24.309-16.698-28.465V34.133h102.4v18.639
				c-11.755,4.156-18.806,16.176-16.698,28.465s12.763,21.271,25.231,21.271s23.123-8.982,25.231-21.271
				s-4.943-24.309-16.698-28.465V34.133h102.4v18.639c-11.755,4.156-18.806,16.176-16.698,28.465
				c2.108,12.289,12.763,21.271,25.231,21.271s23.123-8.982,25.231-21.271s-4.943-24.309-16.698-28.465V34.133h25.6
				c4.71,0.006,8.527,3.823,8.533,8.533V486.4c-0.006,4.71-3.823,8.527-8.533,8.533h-307.2c-4.71-0.006-8.527-3.823-8.533-8.533
				V366.933c0-4.713-3.82-8.533-8.533-8.533s-8.533,3.82-8.533,8.533V486.4c0.015,14.132,11.468,25.585,25.6,25.6h307.2
				c14.132-0.015,25.585-11.468,25.6-25.6V42.667C470.104,28.535,458.651,17.082,444.519,17.067z M171.452,85.333
				c-4.713,0-8.533-3.82-8.533-8.533s3.82-8.533,8.533-8.533s8.533,3.82,8.533,8.533C179.98,81.51,176.163,85.327,171.452,85.333z
				 M290.919,85.333c-4.713,0-8.533-3.82-8.533-8.533s3.82-8.533,8.533-8.533s8.533,3.82,8.533,8.533
				C299.446,81.51,295.629,85.327,290.919,85.333z M410.386,85.333c-4.713,0-8.533-3.82-8.533-8.533s3.82-8.533,8.533-8.533
				s8.533,3.82,8.533,8.533C418.913,81.51,415.096,85.327,410.386,85.333z"/>
            <path d="M171.452,179.2c0.2,0,0.404-0.009,0.604-0.021c2.467-0.175,4.737-1.413,6.221-3.392l25.6-34.133
				c1.83-2.438,2.219-5.667,1.022-8.471c-1.197-2.804-3.799-4.756-6.825-5.121c-3.026-0.365-6.018,0.912-7.847,3.35l-19.7,26.263
				l-10.109-10.108c-3.341-3.281-8.701-3.256-12.012,0.054s-3.335,8.671-0.054,12.012l17.067,17.067
				C167.018,178.301,169.189,179.201,171.452,179.2z"/>
            <path d="M148.353,253.5l17.067,17.067c1.599,1.602,3.77,2.501,6.033,2.5c0.2,0,0.404-0.008,0.604-0.021
				c2.467-0.175,4.737-1.413,6.221-3.392l25.6-34.133c2.828-3.769,2.065-9.118-1.704-11.946c-3.769-2.828-9.118-2.065-11.946,1.704
				l-19.7,26.263l-10.109-10.108c-3.341-3.281-8.701-3.256-12.012,0.054C145.096,244.799,145.072,250.159,148.353,253.5z"/>
            <path d="M231.186,170.667h196.267c4.713,0,8.533-3.82,8.533-8.533s-3.82-8.533-8.533-8.533H231.186
				c-4.713,0-8.533,3.82-8.533,8.533S226.473,170.667,231.186,170.667z"/>
            <path d="M231.186,264.533h196.267c4.713,0,8.533-3.82,8.533-8.533s-3.82-8.533-8.533-8.533H231.186
				c-4.713,0-8.533,3.82-8.533,8.533S226.473,264.533,231.186,264.533z"/>
            <path d="M231.186,358.4h196.267c4.713,0,8.533-3.82,8.533-8.533s-3.82-8.533-8.533-8.533H231.186
				c-4.713,0-8.533,3.82-8.533,8.533S226.473,358.4,231.186,358.4z"/>
            <path d="M231.186,452.267h196.267c4.713,0,8.533-3.82,8.533-8.533s-3.82-8.533-8.533-8.533H231.186
				c-4.713,0-8.533,3.82-8.533,8.533S226.473,452.267,231.186,452.267z"/>
            <path d="M167.724,349.671l6.229,6.229c2.15,2.18,5.304,3.041,8.264,2.255c2.96-0.786,5.271-3.097,6.057-6.057
				c0.786-2.96-0.075-6.114-2.255-8.264l-6.072-6.072c-0.173-16.55-6.488-32.446-17.719-44.603l-74.133-80.313
				c-4.565-4.933-10.844-7.933-17.55-8.384c-0.498-0.038-0.975-0.168-1.479-0.178h-0.004c-5.376-0.041-10.648,1.487-15.168,4.397
				c-1.509,0.986-2.911,2.125-4.186,3.399c-10.141,10.087-10.467,26.395-0.738,36.879l12.787,13.854l0.003,0.002l60.468,65.506
				C134.057,341.06,150.366,348.713,167.724,349.671z M61.511,237.383c-2.574-2.788-3.254-6.834-1.734-10.31
				c1.52-3.476,4.953-5.724,8.747-5.727l0.2,0.004c2.6,0.041,5.069,1.152,6.825,3.071l6.246,6.767l-13.519,13.523L61.511,237.383z
				 M93.382,243.737l56.304,60.996c6.981,7.542,11.453,17.062,12.8,27.25c-10.643-1.95-20.368-7.296-27.717-15.237l-54.91-59.486
				L93.382,243.737z"/>
        </g>
    </symbol>
    <symbol id="hand-choose" viewBox="-73 0 512 512.15596">
        <path d="m1.78125 232.433594c-3.957031 10.554687-.867188 22.460937 7.730469 29.753906 16.289062 16.300781 49.789062 75.144531 66.371093 116.609375 11.316407 28.28125 36.164063 56.039063 55.015626 74.351563 8.113281 7.984374 12.667968 18.898437 12.644531 30.285156v3.121094c0 14.140624 11.460937 25.601562 25.601562 25.601562h136.53125c14.140625 0 25.601563-11.460938 25.601563-25.601562v-26.214844c-.078125-2.167969.746094-4.273438 2.277344-5.808594 31.496093-28.800781 31.855468-76.878906 31.855468-78.910156v-135.089844c.316406-18.273438-13.460937-33.722656-31.648437-35.488281-6.835938-.449219-13.648438 1.171875-19.550781 4.648437v-13.269531c.070312-12.296875-6.515626-23.667969-17.21875-29.726563-10.699219-6.058593-23.839844-5.855468-34.347657.535157-1.09375-11.511719-8.007812-21.660157-18.316406-26.890625-10.3125-5.230469-22.582031-4.820313-32.519531 1.09375v-14.132813c21.179687-12.019531 34.226562-34.527343 34.136718-58.878906 0-37.703125-30.566406-68.265625-68.269531-68.265625s-68.265625 30.5625-68.265625 68.265625c-.089844 24.351563 12.957032 46.859375 34.132813 58.878906v137.386719c.242187 10.074219-1.128907 20.117188-4.0625 29.757812-.914063 2.847657-3.246094 5.019532-6.152344 5.734376-2.734375.691406-5.632813-.070313-7.679687-2.015626-6.664063-6.355468-12.585938-13.449218-17.644532-21.144531-14.808594-22.152343-52.070312-63.53125-75.394531-63.53125-13.101563-.273437-25.152344 7.132813-30.828125 18.945313zm124.695312-164.011719c0-28.277344 22.921876-51.199219 51.199219-51.199219 28.277344 0 51.199219 22.921875 51.199219 51.199219.082031 14.601563-6.136719 28.527344-17.066406 38.214844v-38.214844c0-18.851563-15.28125-34.132813-34.132813-34.132813-18.851562 0-34.132812 15.28125-34.132812 34.132813v38.214844c-10.925781-9.6875-17.148438-23.613281-17.066407-38.214844zm-32.699218 218.070313c5.785156 8.773437 12.550781 16.859374 20.164062 24.105468 6.277344 5.9375 15.15625 8.253906 23.535156 6.136719 8.539063-2.128906 15.394532-8.480469 18.175782-16.828125 3.53125-11.398438 5.207031-23.289062 4.957031-35.21875v-196.265625c0-9.425781 7.640625-17.066406 17.066406-17.066406s17.066407 7.640625 17.066407 17.066406v179.199219c0 4.714844 3.820312 8.535156 8.535156 8.535156 4.710937 0 8.53125-3.820312 8.53125-8.535156v-76.796875c0-9.425781 7.644531-17.066407 17.066406-17.066407 9.425781 0 17.070312 7.640626 17.070312 17.066407v76.796875c0 4.714844 3.820313 8.535156 8.53125 8.535156 4.714844 0 8.535157-3.820312 8.535157-8.535156v-51.199219c0-9.425781 7.640625-17.066406 17.066406-17.066406s17.066406 7.640625 17.066406 17.066406v59.734375c0 4.710938 3.820313 8.53125 8.53125 8.53125 4.714844 0 8.535157-3.820312 8.535157-8.53125v-17.066406c-.011719-4.527344 1.792968-8.871094 5.007812-12.058594 3.519531-3.488281 8.367188-5.296875 13.3125-4.964844 9.21875 1.203125 16.039062 9.171875 15.8125 18.464844v135.089844c0 .417968-.433594 42.667968-26.316406 66.324218-5.058594 4.769532-7.894532 11.441407-7.816406 18.394532v26.214844c0 4.714843-3.820313 8.535156-8.535157 8.535156h-136.53125c-4.714843 0-8.535156-3.820313-8.535156-8.535156v-3.121094c.011719-15.996094-6.414063-31.324219-17.824219-42.53125-14.457031-14.035156-40.3125-41.609375-51.046875-68.453125-17.5625-43.878907-52.308593-104.476563-70.160156-122.328125-4.0625-4.058594-5.421875-7.816406-4.039063-11.160156 3.09375-5.359376 8.882813-8.589844 15.070313-8.40625 11.597656 0 43.042969 28.75 61.167969 55.9375zm0 0"/>
        <path d="m322.742188 367.089844c4.714843 0 8.535156-3.820313 8.535156-8.535156v-51.199219c0-4.710938-3.820313-8.53125-8.535156-8.53125-4.710938 0-8.53125 3.820312-8.53125 8.53125v51.199219c0 4.714843 3.820312 8.535156 8.53125 8.535156zm0 0"/>
        <path d="m314.210938 418.289062c2.261718 0 4.433593-.898437 6.03125-2.5 6.492187-6.007812 10.441406-14.273437 11.035156-23.101562-.007813-4.609375-3.71875-8.355469-8.328125-8.410156-4.660157-.089844-8.539063 3.558594-8.738281 8.214844-.640626 4.332031-2.773438 8.304687-6.035157 11.230468-2.4375 2.441406-3.167969 6.109375-1.847656 9.296875 1.320313 3.191407 4.429687 5.269531 7.882813 5.269531zm0 0"/>
        <path d="m186.210938 478.023438h8.53125c4.714843 0 8.535156-3.820313 8.535156-8.535157 0-4.710937-3.820313-8.53125-8.535156-8.53125h-8.53125c-4.714844 0-8.535157 3.820313-8.535157 8.53125 0 4.714844 3.820313 8.535157 8.535157 8.535157zm0 0"/>
        <path d="m228.875 478.023438h59.734375c4.714844 0 8.535156-3.820313 8.535156-8.535157 0-4.710937-3.820312-8.53125-8.535156-8.53125h-59.734375c-4.710938 0-8.53125 3.820313-8.53125 8.53125 0 4.714844 3.820312 8.535157 8.53125 8.535157zm0 0"/>
        <path d="m109.410156 141.289062c3.40625 0 6.484375-2.019531 7.835938-5.144531 1.351562-3.125.71875-6.753906-1.613282-9.234375-29.566406-31.25-31.171874-79.644531-3.738281-112.785156 2.027344-2.339844 2.628907-5.59375 1.574219-8.503906-1.058594-2.910156-3.609375-5.019532-6.667969-5.511719-3.058593-.492187-6.140625.710937-8.058593 3.144531-32.90625 39.765625-31 97.828125 4.449218 135.347656 1.613282 1.714844 3.863282 2.6875 6.21875 2.6875zm0 0"/>
        <path d="m257.320312 118.683594c2.011719 1.03125 4.355469 1.222656 6.507813.527344 2.15625-.695313 3.945313-2.214844 4.976563-4.230469 18.65625-36.328125 13.859374-80.28125-12.195313-111.726563-1.914063-2.433594-5-3.636718-8.058594-3.144531-3.054687.492187-5.605469 2.601563-6.664062 5.511719-1.058594 2.910156-.457031 6.164062 1.574219 8.503906 21.710937 26.195312 25.707031 62.8125 10.164062 93.074219-2.152344 4.191406-.496094 9.332031 3.695312 11.484375zm0 0"/>
    </symbol>
    <symbol id="standard" viewBox="0 0 64 64">
        <g>
            <path d="m51.854 29h-2.198c-3.381 0-6.559-1.316-8.95-3.707l-.706-.707-.707.707c-2.234 2.234-5.16 3.515-8.293 3.675v-14.152c1.161-.414 2-1.514 2-2.816v-2c0-1.654-1.346-3-3-3h-1v-3c0-1.654-1.346-3-3-3h-18c-1.654 0-3 1.346-3 3v3h-1c-1.654 0-3 1.346-3 3v2c0 1.302.839 2.402 2 2.816v41.184c0 3.86 3.14 7 7 7h14c2.682 0 5.086-1.547 6.253-3.881 1.466.93 3.23 1.889 5.305 2.875 1.404.668 2.899 1.006 4.442 1.006s3.038-.338 4.442-1.006c7.006-3.329 10.558-6.355 10.558-8.994 0-4.032-2.889-22.377-3.012-23.156zm-44.854-25c0-.551.449-1 1-1h18c.551 0 1 .449 1 1v3h-20zm-4 6c0-.551.449-1 1-1h26c.551 0 1 .449 1 1v2c0 .551-.449 1-1 1h-26c-.551 0-1-.449-1-1zm21 51h-14c-2.414 0-4.434-1.721-4.899-4h7.899v-2h-8v-2h6v-2h-6v-2h8v-2h-8v-2h6v-2h-6v-2h8v-2h-8v-2h6v-2h-6v-2h8v-2h-8v-2h6v-2h-6v-2h8v-2h-8v-2h6v-2h-6v-4h24v14h-.854l-.133.844c-.124.779-3.013 19.124-3.013 23.156 0 1.533 1.207 3.197 3.585 4.975-.78 1.808-2.573 3.025-4.585 3.025zm19.583-.812c-2.268 1.078-4.899 1.078-7.167 0-5.72-2.719-9.416-5.54-9.416-7.188 0-3.402 2.278-18.28 2.856-22h.487c3.59 0 6.983-1.282 9.657-3.63 2.673 2.348 6.066 3.63 9.657 3.63h.487c.578 3.72 2.856 18.598 2.856 22 0 1.648-3.696 4.469-9.417 7.188z"/>
            <path d="m40 32.137-6.754 10.613c-.815 1.281-1.246 2.761-1.246 4.28 0 4.395 3.575 7.97 8.03 7.97 4.395 0 7.97-3.575 7.97-7.97 0-1.519-.431-2.999-1.246-4.279zm-.03 20.863c-3.292 0-5.97-2.678-5.97-5.97 0-1.138.323-2.246.934-3.206l5.066-7.961 5.066 7.962c.611.959.934 2.067.934 3.205 0 3.292-2.678 5.97-6.03 5.97z"/>
            <path d="m45 11h18v2h-18z"/>
            <path d="m45 15h18v2h-18z"/>
            <path d="m45 19h18v2h-18z"/>
            <path d="m45 23h2v2h-2z"/>
            <path d="m53 23h2v2h-2z"/>
            <path d="m61 23h2v2h-2z"/>
            <path d="m49 23h2v2h-2z"/>
            <path d="m57 23h2v2h-2z"/>
        </g>
    </symbol>
    <symbol id="area" viewBox="0 0 405.9 405.9">
        <g>
            <path d="M396.3,162c-0.1,0-0.2,0-0.3,0h-26.5c-15.3-62-63.6-110.4-125.6-125.6V9.9c0.1-5.3-4.1-9.8-9.4-9.9c-0.1,0-0.2,0-0.3,0
			h-62.6c-5.3,0-9.7,4.3-9.7,9.7c0,0.1,0,0.2,0,0.3v26.5C99.9,51.6,51.6,100,36.4,162H9.9c-5.3-0.1-9.8,4.1-9.9,9.4
			c0,0.1,0,0.2,0,0.3v62.6c0,5.3,4.3,9.7,9.6,9.7c0.1,0,0.2,0,0.3,0h26.5c15.1,62,63.5,110.4,125.5,125.5V396
			c-0.1,5.3,4.1,9.8,9.4,9.9c0.1,0,0.2,0,0.3,0h62.6c5.3,0,9.7-4.3,9.7-9.7c0-0.1,0-0.2,0-0.3v-26.5c30.2-7.5,57.8-23.2,79.9-45.2
			c22.4-22.3,38.1-49.4,45.7-80.4H396c5.3,0.1,9.8-4.1,9.9-9.4c0-0.1,0-0.2,0-0.3v-62.4C405.9,166.4,401.6,162,396.3,162z M181.9,20
			h42v43h-42V20z M19.9,224v-42h43v42H19.9z M223.9,386h-42v-43h42V386z M309.7,310.2c-18.2,18.3-40.9,31.6-65.8,38.7v-15.4
			c0-5.5-4.2-10.5-9.7-10.5h-62.6c-5.5,0-9.7,4.9-9.7,10.5v15.4C111,334.7,71.2,294.9,57,244h15.4c5.5,0,10.5-4.2,10.5-9.7v-62.6
			c0-5.5-4.9-9.7-10.5-9.7H57c14.2-50.9,54-90.7,104.9-104.9v15.4c0,5.5,4.2,10.5,9.7,10.5h62.6c5.5,0,9.7-4.9,9.7-10.5V57.1
			c50.9,14.2,90.7,54,104.9,104.9h-15.4c-5.5,0-10.5,4.2-10.5,9.7v62.6c0,5.5,4.9,9.7,10.5,9.7h15.4
			C341.7,269.1,328.2,291.9,309.7,310.2z M385.9,224h-43v-42h43V224z"/>
        </g>
    </symbol>
    <symbol id="chart" viewBox="0 0 24 24">
      <path d="m23.5 24h-23c-.276 0-.5-.224-.5-.5s.224-.5.5-.5h23c.276 0 .5.224.5.5s-.224.5-.5.5z"/><path d="m6.5 24h-5c-.276 0-.5-.224-.5-.5v-5.5c0-.551.449-1 1-1h4c.551 0 1 .449 1 1v5.5c0 .276-.224.5-.5.5zm-4.5-1h4v-5h-4z"/><path d="m14.5 24h-5c-.276 0-.5-.224-.5-.5v-11.5c0-.551.449-1 1-1h4c.551 0 1 .449 1 1v11.5c0 .276-.224.5-.5.5zm-4.5-1h4v-11h-4z"/><path d="m22.5 24h-5c-.276 0-.5-.224-.5-.5v-17.5c0-.551.449-1 1-1h4c.551 0 1 .449 1 1v17.5c0 .276-.224.5-.5.5zm-4.5-1h4v-17h-4z"/><path d="m2.5 11c-.128 0-.256-.049-.354-.146-.195-.195-.195-.512 0-.707l9-9c.195-.195.512-.195.707 0s.195.512 0 .707l-9 9c-.097.097-.225.146-.353.146z"/><path d="m11.5 6c-.276 0-.5-.224-.5-.5v-3.5h-3.5c-.276 0-.5-.224-.5-.5s.224-.5.5-.5h4c.276 0 .5.224.5.5v4c0 .276-.224.5-.5.5z"/>
    </symbol>
    <symbol id="up-down" viewBox="0 0 512.001 512.001">
        <g>
            <g>
                <path d="M504.501,187.277c-4.143,0-7.5,3.357-7.5,7.5v18.475c0,7.984-6.496,14.481-14.481,14.481
			c-8.08,0-14.482-6.628-14.482-14.481c0.028-114.853-0.066-107.866,0.073-109.267c0.716-7.205,6.825-13.05,14.41-13.05
			c7.984,0,14.481,6.496,14.481,14.481v54.358c-0.002,4.143,3.355,7.501,7.498,7.501c4.143,0,7.5-3.357,7.5-7.5v-54.359
			c0-16.257-13.226-29.482-29.482-29.482c-12.079,0-22.479,7.303-27.03,17.725c-7.44-0.631-17.363,2.274-28.066-5.66
			c-13.617-10.098-30.634-15.889-46.685-15.889l-96.292,0.001c-23.526,0-35.747,27.545-20.444,45.177
			c-11.927,9.325-13.916,26.33-4.824,38.087c-0.078,0.1-15.358,9.181-11.938,27.708c1.027,5.649,3.754,10.623,7.595,14.433
			c-18.376,16.6-6.663,47.322,18.19,47.322h50.598c-17.674,32.319-16.502,64.987-16.295,68.817
			c1.58,29.247,35.414,39.715,49.492,13.898c3.776-6.925,5.022-15.144,6.226-22.962c2.632-10.81,10.651-30.265,34.886-41.765
			c8.693-2.797,17.38-7.34,25.156-13.159c5.602-4.193,10.199-9.854,13.295-16.369c5.128-10.796,17.077-8.031,19.044-8.423
			c4.519,10.493,14.96,17.859,27.092,17.859c16.257,0,29.482-13.226,29.482-29.482v-18.475
			C512.001,190.634,508.644,187.277,504.501,187.277z M449.709,209.874c-11.426,0-21.975,6.668-26.877,16.987
			c-2.054,4.323-5.074,8.057-8.734,10.796c-11.26,8.427-20.75,10.754-22.085,11.376c-30.502,14.242-40.427,38.924-43.63,52.369
			c-0.5,2.093-1.458,12.963-4.734,18.97c-6.901,12.66-20.594,6.332-21.342-7.526c-0.194-3.592-1.348-35.967,17.682-66.275
			c4.542-7.234-0.645-16.734-9.267-16.734h-57.698c-6.707,0-12.164-5.456-12.164-12.163c0-6.707,5.456-12.164,12.164-12.164
			c16.668-0.034-4.538-0.104,7.692-0.104c4.143,0,7.5-3.357,7.5-7.5s-3.357-7.5-7.5-7.5h-6.709c-5.394,0-10.664-3.533-12.025-10.097
			c-0.773-4.397,1.221-7.585,1.53-8.367l1.248-1.726l1.188-1.198c0.636-0.551,2.203-1.559,2.103-1.491
			c2.334-0.9,3.43-1.551,5.955-1.551h6.708c4.142,0,7.5-3.357,7.5-7.5c0-4.142-3.357-7.5-7.499-7.5
			c-13.096-0.002-17.006-18.134-4.891-23.41c3.221-1.405,5.358-0.923,8.617-1.021c4.143,0,7.5-3.357,7.5-7.5
			c0-4.084-3.264-7.405-7.325-7.498c-1.375-0.027-0.652-0.026-1.485-0.073c-0.1-0.02-2.297-0.46-2.157-0.432l-0.623-0.202
			l-3.012-1.577c-0.102-0.086-1.677-1.427-1.575-1.341l-1.516-1.865c-0.048-0.109-2.484-3.492-1.932-8.161
			c0.916-6.621,6.269-10.781,12.128-10.781l96.292-0.001c12.713,0,26.825,4.836,37.75,12.939c15.16,11.239,29.562,8.06,34.547,8.611
			v101.214H449.709z"/>
            </g>
        </g>
        <g>
            <g>
                <path d="M257.164,314.486c18.377-16.594,6.669-47.322-18.188-47.322h-50.598c17.674-32.319,16.502-64.987,16.295-68.818
			c-1.588-29.362-35.458-39.63-49.492-13.897c-3.776,6.925-5.021,15.144-6.226,22.962c-2.632,10.81-10.651,30.265-34.886,41.765
			c-8.692,2.796-17.378,7.338-25.157,13.159c-5.602,4.193-10.199,9.855-13.294,16.369c-5.128,10.796-17.077,8.031-19.044,8.424
			c-4.519-10.494-14.96-17.86-27.091-17.86C13.226,269.265,0,282.492,0,298.749v11.596c0,4.143,3.357,7.5,7.5,7.5s7.5-3.357,7.5-7.5
			v-11.596c0-7.985,6.496-14.482,14.482-14.482c8.146,0,14.482,6.704,14.482,14.482v107.836c0,7.804-6.359,14.481-14.482,14.481
			c-7.984,0-14.482-6.496-14.482-14.481v-61.238c0-4.143-3.357-7.5-7.5-7.5s-7.5,3.357-7.5,7.5v61.238
			c0,16.257,13.226,29.482,29.483,29.482c12.079,0,22.479-7.303,27.03-17.725c7.44,0.631,17.363-2.274,28.066,5.66
			c13.617,10.098,30.634,15.889,46.685,15.889h42.084c4.143,0,7.5-3.357,7.5-7.5s-3.357-7.5-7.5-7.5h-42.084
			c-12.713,0-26.825-4.836-37.75-12.939c-15.16-11.239-29.562-8.06-34.547-8.611V302.126h3.325c11.426,0,21.975-6.668,26.877-16.987
			c2.054-4.323,5.074-8.057,8.733-10.797c11.263-8.427,20.751-10.753,22.086-11.375c30.502-14.242,40.427-38.924,43.63-52.369
			c0.047-0.196,0.086-0.396,0.116-0.595c0.906-5.886,1.945-13.474,4.618-18.375c6.917-12.692,20.594-6.299,21.342,7.526
			c0.194,3.592,1.348,35.967-17.682,66.275c-4.542,7.234,0.645,16.734,9.267,16.734h57.698c6.707,0,12.164,5.456,12.164,12.163
			c0,6.706-5.456,12.163-12.164,12.163h-5.66c-0.26,0-0.52,0.014-0.778,0.04c-0.097,0.011-0.194,0.016-0.293,0.022l-0.326,0.025
			c-0.21,0.011-0.422,0.017-0.635,0.017c-4.143,0-7.5,3.357-7.5,7.5s3.357,7.5,7.5,7.5h6.709c5.394,0,10.665,3.533,12.026,10.098
			c1.016,5.69-2.365,9.466-2.411,9.646l-1.146,1.268c-0.101,0.093-0.511,0.471-0.41,0.378c-0.634,0.549-2.071,1.482-1.971,1.414
			c-3.716,2.138-7.489,1.624-12.796,1.628c-4.142,0-7.5,3.357-7.5,7.5c0,4.142,3.357,7.5,7.499,7.5
			c13.226,0.002,17.138,18.534,4.459,23.587c-3.22,1.255-5.326,0.712-8.185,0.844c-4.143,0-7.5,3.357-7.5,7.5
			c0,4.084,3.264,7.405,7.325,7.498c3.023,0.075,5.194,1.072,5.094,1.036c1.803,0.854,3.188,2.04,3.048,1.929
			c8.481,7.42,3.439,21.467-7.969,21.467h-19.206c-4.143,0-7.5,3.357-7.5,7.5s3.357,7.5,7.5,7.5h19.206
			c13.158,0,24.417-9.39,26.778-22.363c-0.039-0.167,2.972-12.098-6.333-22.813c11.962-9.352,13.893-26.356,4.825-38.087
			C267.145,347.383,269.618,326.833,257.164,314.486z"/>
            </g>
        </g>
    </symbol>
    <symbol id="questions" viewBox="0 0 512 512">
        <path d="m512 346.5c0-74.628906-50.285156-139.832031-121.195312-159.480469-4.457032-103.878906-90.347657-187.019531-195.304688-187.019531-107.800781 0-195.5 87.699219-195.5 195.5 0 35.132812 9.351562 69.339844 27.109375 99.371094l-26.390625 95.40625 95.410156-26.386719c27.605469 16.324219 58.746094 25.519531 90.886719 26.90625 19.644531 70.914063 84.851563 121.203125 159.484375 121.203125 29.789062 0 58.757812-7.933594 84.210938-23.007812l80.566406 22.285156-22.285156-80.566406c15.074218-25.453126 23.007812-54.421876 23.007812-84.210938zm-411.136719-15.046875-57.117187 15.800781 15.800781-57.117187-3.601563-5.632813c-16.972656-26.554687-25.945312-57.332031-25.945312-89.003906 0-91.257812 74.242188-165.5 165.5-165.5s165.5 74.242188 165.5 165.5-74.242188 165.5-165.5 165.5c-31.671875 0-62.445312-8.972656-89.003906-25.945312zm367.390625 136.800781-42.382812-11.726562-5.660156 3.683594c-21.941407 14.253906-47.433594 21.789062-73.710938 21.789062-58.65625 0-110.199219-37.925781-128.460938-92.308594 89.820313-10.355468 161.296876-81.832031 171.65625-171.65625 54.378907 18.265625 92.304688 69.808594 92.304688 128.464844 0 26.277344-7.535156 51.769531-21.789062 73.710938l-3.683594 5.660156zm0 0"/>
        <path d="m180.5 271h30v30h-30zm0 0"/>
        <path d="m225.5 150c0 8.519531-3.46875 16.382812-9.765625 22.144531l-35.234375 32.25v36.605469h30v-23.394531l25.488281-23.328125c12.398438-11.347656 19.511719-27.484375 19.511719-44.277344 0-33.085938-26.914062-60-60-60s-60 26.914062-60 60h30c0-16.542969 13.457031-30 30-30s30 13.457031 30 30zm0 0"/>
    </symbol>
    <symbol id="light" viewBox="0 0 504.5 504.5">
    <g><path d="m215.339 464.645 36.785-10 36.785 10v3.069c0 20.316-16.469 36.785-36.785 36.785-20.316 0-36.785-16.469-36.785-36.785z" fill="#60b7ff"/><path d="m279.22 464.645h-64.192c-7.242 0-13.113-5.871-13.113-13.113v-87.305l50.209-10 40.209 10v87.305c.001 7.242-5.87 13.113-13.113 13.113z" fill="#c4e2ff"/><path d="m275.334 359.999v91.533c0 7.242-5.871 13.113-13.113 13.113h27c7.242 0 13.114-5.871 13.114-13.113v-87.305z" fill="#8ac9fe"/><g><path d="m252.25 48.662c-4.142 0-7.5-3.358-7.5-7.5v-33.662c0-4.142 3.358-7.5 7.5-7.5 4.143 0 7.5 3.358 7.5 7.5v33.662c0 4.142-3.358 7.5-7.5 7.5z" fill="#fed402"/></g><g><path d="m364.402 95.117c-1.919 0-3.839-.732-5.304-2.197-2.929-2.929-2.929-7.678 0-10.606l23.803-23.803c2.93-2.929 7.678-2.929 10.607 0s2.929 7.678 0 10.606l-23.802 23.803c-1.465 1.465-3.385 2.197-5.304 2.197z" fill="#fed402"/></g><g><path d="m116.295 343.224c-1.919 0-3.839-.732-5.303-2.197-2.929-2.929-2.929-7.678 0-10.606l23.803-23.803c2.929-2.929 7.678-2.929 10.607 0s2.929 7.678 0 10.606l-23.803 23.803c-1.465 1.465-3.385 2.197-5.304 2.197z" fill="#fed402"/></g><g><path d="m140.098 95.117c-1.919 0-3.839-.732-5.303-2.197l-23.803-23.803c-2.929-2.929-2.929-7.678 0-10.606 2.929-2.929 7.678-2.929 10.606 0l23.803 23.803c2.929 2.929 2.929 7.678 0 10.606-1.464 1.465-3.384 2.197-5.303 2.197z" fill="#fed402"/></g><g><path d="m388.205 343.224c-1.92 0-3.839-.732-5.304-2.197l-23.803-23.803c-2.929-2.929-2.929-7.678 0-10.606 2.93-2.93 7.678-2.929 10.607 0l23.803 23.803c2.929 2.929 2.929 7.678 0 10.606-1.464 1.465-3.384 2.197-5.303 2.197z" fill="#fed402"/></g><g><path d="m93.643 207.269h-33.662c-4.142 0-7.5-3.358-7.5-7.5s3.358-7.5 7.5-7.5h33.662c4.142 0 7.5 3.358 7.5 7.5s-3.358 7.5-7.5 7.5z" fill="#fed402"/></g><g><path d="m444.519 207.269h-33.663c-4.142 0-7.5-3.358-7.5-7.5s3.358-7.5 7.5-7.5h33.663c4.143 0 7.5 3.358 7.5 7.5s-3.357 7.5-7.5 7.5z" fill="#fed402"/></g><path d="m372.007 199.769c0-71.113-47.205-128.864-118.108-129.747-71.59-.892-131.407 58.152-131.407 129.747 0 38.383 16.667 72.87 43.158 96.625 19.202 17.22 31.72 40.66 35.975 66.098l.29 1.734h100.419l.245-1.467c4.329-25.882 7.533-49.323 26.947-66.979 26.097-23.732 42.481-57.956 42.481-96.011z" fill="#fed402"/><g><path d="m312.544 405.2h-120.588c-4.142 0-7.5-3.358-7.5-7.5s3.358-7.5 7.5-7.5h120.588c4.143 0 7.5 3.358 7.5 7.5s-3.358 7.5-7.5 7.5z" fill="#60b7ff"/></g><g><path d="m312.544 438.672h-120.588c-4.142 0-7.5-3.358-7.5-7.5s3.358-7.5 7.5-7.5h120.588c4.143 0 7.5 3.358 7.5 7.5 0 4.143-3.358 7.5-7.5 7.5z" fill="#60b7ff"/></g><path d="m253.899 70.022c-5.072-.063-10.082.185-15.019.706 65.255 6.813 116.127 61.982 116.127 129.041 0 38.055-16.384 72.279-42.481 96.012-19.414 17.656-32.618 41.096-36.947 66.979l-.245 1.467h27l.245-1.467c4.329-25.882 17.533-49.323 36.947-66.979 26.097-23.733 42.481-57.957 42.481-96.012 0-71.112-57.205-128.864-128.108-129.747z" fill="#fac600"/><path d="m339.899 210.659v-21.78c0-2.761-2.239-5-5-5h-20.544c-1.524-5.975-3.89-11.612-6.961-16.783l14.533-14.533c1.953-1.953 1.953-5.118 0-7.071l-15.4-15.4c-1.953-1.953-5.118-1.953-7.071 0l-14.533 14.533c-5.171-3.07-10.808-5.436-16.783-6.96v-20.545c0-2.761-2.239-5-5-5h-21.78c-2.761 0-5 2.239-5 5v20.544c-5.975 1.524-11.612 3.89-16.783 6.96l-14.533-14.533c-1.953-1.953-5.118-1.953-7.071 0l-15.4 15.4c-1.953 1.953-1.953 5.118 0 7.071l14.533 14.533c-3.07 5.171-5.436 10.808-6.961 16.783h-20.544c-2.761 0-5 2.239-5 5v21.78c0 2.761 2.239 5 5 5h20.544c1.524 5.975 3.89 11.612 6.961 16.783l-14.533 14.533c-1.953 1.953-1.953 5.118 0 7.071l15.4 15.4c1.953 1.953 5.118 1.953 7.071 0l14.533-14.533c5.171 3.07 10.808 5.436 16.783 6.96v20.544c0 2.761 2.239 5 5 5h21.78c2.761 0 5-2.239 5-5v-20.544c5.975-1.524 11.612-3.89 16.783-6.961l14.533 14.533c1.953 1.953 5.118 1.953 7.071 0l15.4-15.4c1.953-1.953 1.953-5.118 0-7.071l-14.533-14.533c3.07-5.171 5.436-10.808 6.961-16.783h20.544c2.761.002 5-2.237 5-4.998zm-87.649 20.079c-17.104 0-30.969-13.865-30.969-30.969s13.865-30.969 30.969-30.969 30.969 13.865 30.969 30.969-13.866 30.969-30.969 30.969z" fill="#efedef"/></g>
    </symbol>
     <symbol id="master-card" viewBox="0 -43 512 512">
    <g>
    <path d="m453.332031 426.667969h-394.664062c-32.363281 0-58.667969-26.304688-58.667969-58.667969v-266.667969c0-32.363281 26.304688-58.664062 58.667969-58.664062h128c8.832031 0 16 7.167969 16 16s-7.167969 16-16 16h-128c-14.699219 0-26.667969 11.964843-26.667969 26.664062v266.667969c0 14.699219 11.96875 26.667969 26.667969 26.667969h394.664062c14.699219 0 26.667969-11.96875 26.667969-26.667969v-266.667969c0-14.699219-11.96875-26.664062-26.667969-26.664062h-128c-8.832031 0-16-7.167969-16-16s7.167969-16 16-16h128c32.363281 0 58.667969 26.300781 58.667969 58.664062v266.667969c0 32.363281-26.304688 58.667969-58.667969 58.667969zm0 0"/><path d="m304 117.332031h-96c-20.585938 0-37.332031-16.746093-37.332031-37.332031v-42.667969c0-20.585937 16.746093-37.332031 37.332031-37.332031h96c20.585938 0 37.332031 16.746094 37.332031 37.332031v42.667969c0 20.585938-16.746093 37.332031-37.332031 37.332031zm-96-85.332031c-2.945312 0-5.332031 2.390625-5.332031 5.332031v42.667969c0 2.945312 2.386719 5.332031 5.332031 5.332031h96c2.945312 0 5.332031-2.386719 5.332031-5.332031v-42.667969c0-2.941406-2.386719-5.332031-5.332031-5.332031zm0 0"/><path d="m160 256c-29.398438 0-53.332031-23.9375-53.332031-53.332031 0-29.398438 23.933593-53.335938 53.332031-53.335938s53.332031 23.9375 53.332031 53.335938c0 29.394531-23.933593 53.332031-53.332031 53.332031zm0-74.667969c-11.753906 0-21.332031 9.578125-21.332031 21.335938 0 11.753906 9.578125 21.332031 21.332031 21.332031s21.332031-9.578125 21.332031-21.332031c0-11.757813-9.578125-21.335938-21.332031-21.335938zm0 0"/><path d="m240 362.667969c-8.832031 0-16-7.167969-16-16v-10.667969c0-14.699219-11.96875-26.667969-26.667969-26.667969h-74.664062c-14.699219 0-26.667969 11.96875-26.667969 26.667969v10.667969c0 8.832031-7.167969 16-16 16s-16-7.167969-16-16v-10.667969c0-32.363281 26.304688-58.667969 58.667969-58.667969h74.664062c32.363281 0 58.667969 26.304688 58.667969 58.667969v10.667969c0 8.832031-7.167969 16-16 16zm0 0"/><path d="m432 192h-117.332031c-8.832031 0-16-7.167969-16-16s7.167969-16 16-16h117.332031c8.832031 0 16 7.167969 16 16s-7.167969 16-16 16zm0 0"/><path d="m432 277.332031h-117.332031c-8.832031 0-16-7.167969-16-16s7.167969-16 16-16h117.332031c8.832031 0 16 7.167969 16 16s-7.167969 16-16 16zm0 0"/><path d="m432 362.667969h-117.332031c-8.832031 0-16-7.167969-16-16s7.167969-16 16-16h117.332031c8.832031 0 16 7.167969 16 16s-7.167969 16-16 16zm0 0"/>
    </g>
    </symbol>
    <symbol id="graduate" viewBox="0 0 349.2 349.2">
    	<g>
		<path d="M337.6,114.25l-139.2-68c-12-6-32.4-6-44.4,0l-142.4,68c-10,4.8-11.6,11.6-11.6,15.2c0,3.6,1.6,10,11.6,15.2l11.6,5.6v64
			c-7.2,2.8-12.4,10-12.4,18s5.2,15.2,12,18l-18,57.2h50.4l-18-57.2c7.2-2.8,12-10,12-18c0-8.4-5.2-15.2-12.4-18v-57.2l21.2,10.4
			v83.2c0,1.2,0.4,2.4,1.2,3.6c2,2.4,39.2,53.2,115.2,53.2s113.2-51.2,114.8-53.2c0.8-1.2,1.2-2.4,1.2-3.6v-82.8l47.2-23.2
			c10-4.8,11.6-11.6,11.6-15.2C348.8,125.85,347.6,119.05,337.6,114.25z M277.6,248.65c-6.4,8-40.8,46.4-103.2,46.4
			c-62.4,0-96.8-38.4-103.2-46.4v-75.6l82.8,39.6c6,2.8,14,4.4,22,4.4c8.4,0,16.4-1.6,22.4-4.8l79.2-38.8V248.65z M332,133.45
			l-48,23.6c-2,0-3.6,0.8-4.4,2.4l-86.8,42c-8.4,4.4-24.8,4.4-33.6,0l-106.8-51.2l122.8-14.4c3.6-0.4,6-3.6,5.6-6.8
			c-0.4-3.6-3.6-6-6.8-5.6l-142.4,16.8l-14.4-6.8c-3.6-1.6-4.4-3.6-4.4-3.6c0-0.4,0.8-2,4.4-3.6l142.4-68.4c4.4-2,10.4-3.2,16.4-3.2
			c6.4,0,12.8,1.2,16.8,3.2l139.2,68c3.6,1.6,4.4,3.2,4.4,4C336.4,129.85,335.2,131.85,332,133.45z"/>
	</g>
    </symbol>
       <symbol id="skills" viewBox="0 0 64 64">
    <g><path d="m29 19h3c1.615 0 3.067-.897 3.789-2.342l.105-.211-1.789-.895-.105.212c-.381.762-1.147 1.236-2 1.236h-3z"/><path d="m29 57h6v2h-6z"/><path d="m29 53h6v2h-6z"/><path d="m29 49h6v2h-6z"/><path d="m61 45h-4.586l-8.072-8.072c5.896-3.117 10.894-7.894 14.245-13.926l.558-1.002-.558-1.002c-4.522-8.139-12.235-14.208-21.196-16.708-1.482-1.992-3.846-3.29-6.514-3.29h-5.754c-2.668 0-5.032 1.298-6.514 3.29-8.961 2.5-16.674 8.568-21.196 16.708l-.558 1.002.558 1.002c3.351 6.032 8.349 10.808 14.245 13.926l-8.072 8.072h-4.586c-1.103 0-2 .897-2 2v14c0 1.103.897 2 2 2h10c1.103 0 2-.897 2-2v-14c0-1.103-.897-2-2-2h-2.586l7.143-7.143c4.172 1.893 8.729 2.974 13.443 3.109v4.034h-4c-1.103 0-2 .897-2 2v14c0 1.103.897 2 2 2h10c1.103 0 2-.897 2-2v-14c0-1.103-.897-2-2-2h-4v-4.034c4.714-.135 9.271-1.216 13.443-3.109l7.143 7.143h-2.586c-1.103 0-2 .897-2 2v14c0 1.103.897 2 2 2h10c1.103 0 2-.897 2-2v-14c0-1.103-.897-2-2-2zm-47.998 16h-10.002v-14h10zm24 0h-10.002v-14h10zm23.837-39.031.016.031-.017.031c-3.79 6.821-9.809 11.942-16.851 14.693 4.275-3.487 7.013-8.79 7.013-14.724 0-5.784-2.581-11.139-6.998-14.73 7.093 2.785 13.113 7.997 16.837 14.699zm-35.839-4.969c-1.103 0-2-.897-2-2s.897-2 2-2zm-3.757-5.907.425 1.701c-.42.633-.668 1.391-.668 2.206 0 2.206 1.794 4 4 4h.101c.289 1.419 1.193 2.604 2.408 3.31l-.29.868c-4.472 1.348-7.657 5.235-8.146 9.835-2.534-2.97-4.073-6.812-4.073-11.013 0-5.06 2.21-9.753 6.004-12.962 0 .028-.004.056-.004.085 0 .665.082 1.328.243 1.97zm17.757 1.907c1.103 0 2 .897 2 2s-.897 2-2 2zm-.101 6h.101c2.206 0 4-1.794 4-4 0-.815-.248-1.573-.668-2.206l.425-1.7c.161-.643.243-1.306.243-1.971 0-.029-.004-.057-.004-.086 3.794 3.209 6.004 7.902 6.004 12.963 0 4.201-1.539 8.043-4.073 11.013-.489-4.599-3.675-8.487-8.146-9.835l-.29-.868c1.215-.706 2.119-1.891 2.408-3.31zm-8.899 4h4c.203 0 .396-.036.593-.06l.184.553-2.777 1.389-2.777-1.389.184-.553c.197.024.39.06.593.06zm4.077 3.08 2.02-1.01c.444.128.874.282 1.286.469l-.855 2.012zm-6.174-1.01 2.02 1.01-2.452 1.471-.855-2.012c.413-.187.844-.341 1.287-.469zm-3.025 1.492 1.65 3.887 2.816-1.689.584 1.296-2.746 8.239c-2.302-.682-4.399-1.838-6.182-3.356v-.692c0-3.111 1.496-5.924 3.878-7.685zm6.768 2.438-.575-1.277.929-.557.929.557-.575 1.277zm3.01-.24 2.816 1.689 1.65-3.887c2.382 1.761 3.878 4.574 3.878 7.684v.692c-1.783 1.518-3.88 2.674-6.182 3.356l-2.746-8.239zm2.344-10.76c0 1.654-1.346 3-3 3h-4c-1.654 0-3-1.346-3-3v-6.146c0-.718.375-1.367.987-1.726.877 1.243 2.269 2.102 3.894 2.265l5.119.512zm-7.859 20.74 2.579-7.74h.559l2.58 7.74c-.931.159-1.883.26-2.859.26s-1.928-.101-2.859-.26zm-.018-35.74h5.754c3.376 0 6.123 2.747 6.123 6.123 0 .501-.062 1.001-.183 1.485l-.187.747c-.499-.224-1.048-.355-1.63-.355h-.948l-5.972-.597c-1.756-.175-3.08-1.638-3.08-3.403h-2c0 .449.054.886.156 1.304-1.073.556-1.807 1.546-2.056 2.696h-.1c-.582 0-1.131.131-1.631.355l-.187-.748c-.12-.483-.182-.983-.182-1.484 0-3.376 2.747-6.123 6.123-6.123zm-25.962 19.031-.016-.031.017-.031c3.724-6.703 9.745-11.915 16.84-14.7-4.42 3.591-7.002 8.946-7.002 14.731 0 5.934 2.738 11.237 7.012 14.724-7.042-2.751-13.061-7.872-16.851-14.693zm47.839 38.969v-14h10l.002 14z"/><path d="m5 57h6v2h-6z"/><path d="m5 53h6v2h-6z"/><path d="m5 49h6v2h-6z"/><path d="m54.845 55.431-1.138-1.138-1.414 1.414 2.862 2.862 4.677-7.014-1.664-1.11z"/></g>
    </symbol>
    <symbol viewBox="0 0 256 256" id="Left-Chevron">
		<polygon points="207.093,30.187 176.907,0 48.907,128 176.907,256 207.093,225.813 109.28,128"/>
    </symbol>

   <symbol viewBox="0 0 256 256" id="Right-Chevron">
    	<polygon points="79.093,0 48.907,30.187 146.72,128 48.907,225.813 79.093,256 207.093,128"/>
    </symbol>

</svg>
