<svg xmlns="http://www.w3.org/2000/svg" width="20" height="20" viewBox="0 0 20 20">
    <defs>
        <style>
            .prefix__cls-1{fill:#707070}
        </style>
    </defs>
    <g id="prefix__phone">
        <path id="prefix__Path_11101" d="M14.374 20a5.572 5.572 0 0 1-1.912-.342 20.385 20.385 0 0 1-7.4-4.718 20.384 20.384 0 0 1-4.718-7.4A5.532 5.532 0 0 1 .06 4.819 5.673 5.673 0 0 1 2.975.666 5.569 5.569 0 0 1 5.642 0a.625.625 0 0 1 .611.494l.981 4.578a.625.625 0 0 1-.169.573L5.388 7.321a16.451 16.451 0 0 0 7.291 7.291l1.676-1.676a.625.625 0 0 1 .573-.169l4.578.981a.625.625 0 0 1 .494.611 5.569 5.569 0 0 1-.666 2.667 5.673 5.673 0 0 1-4.153 2.916 5.559 5.559 0 0 1-.807.059zM5.142 1.277a4.379 4.379 0 0 0-3.625 5.834 18.956 18.956 0 0 0 11.372 11.373 4.379 4.379 0 0 0 5.834-3.626L15 14.06l-1.751 1.751a.625.625 0 0 1-.708.124A17.7 17.7 0 0 1 4.066 7.46a.625.625 0 0 1 .124-.708L5.94 5z" class="prefix__cls-1" data-name="Path 11101"/>
        <path id="prefix__Path_11102" d="M250.02 10.625a.625.625 0 0 1-.625-.625 8.76 8.76 0 0 0-8.75-8.75.625.625 0 0 1 0-1.25 10 10 0 0 1 10 10 .625.625 0 0 1-.625.625z" class="prefix__cls-1" data-name="Path 11102" transform="translate(-230.644)"/>
        <path id="prefix__Path_11103" d="M247.52 72.125a.625.625 0 0 1-.625-.625 6.257 6.257 0 0 0-6.25-6.25.625.625 0 0 1 0-1.25 7.508 7.508 0 0 1 7.5 7.5.625.625 0 0 1-.625.625z" class="prefix__cls-1" data-name="Path 11103" transform="translate(-230.644 -61.5)"/>
        <path id="prefix__Path_11104" d="M245.02 133.625a.625.625 0 0 1-.625-.625 3.754 3.754 0 0 0-3.75-3.75.625.625 0 0 1 0-1.25 5.005 5.005 0 0 1 5 5 .625.625 0 0 1-.625.625z" class="prefix__cls-1" data-name="Path 11104" transform="translate(-230.644 -123)"/>
    </g>
</svg>
